<?xml version="1.0" standalone="no"?>
<!DOCTYPE svg PUBLIC "-//W3C//DTD SVG 20010904//EN"
 "http://www.w3.org/TR/2001/REC-SVG-20010904/DTD/svg10.dtd">
<svg version="1.0" xmlns="http://www.w3.org/2000/svg"
 width="500.000000pt" height="500.000000pt" viewBox="0 0 500.000000 500.000000"
 preserveAspectRatio="xMidYMid meet">

<g transform="translate(0.000000,500.000000) scale(0.100000,-0.100000)"
fill="#000000" stroke="none">
<path d="M1257 2041 c-37 -88 -70 -167 -73 -176 -4 -10 0 -15 13 -15 13 0 24
13 34 43 l16 42 73 0 73 0 16 -42 c12 -34 20 -43 38 -43 l23 0 -19 48 c-11 26
-44 105 -73 175 l-55 129 -66 -161z m92 3 c11 -31 21 -58 21 -60 0 -2 -23 -4
-51 -4 -28 0 -49 4 -47 8 2 4 12 31 22 60 11 29 23 52 27 52 3 0 16 -25 28
-56z"/>
<path d="M2140 2177 c-47 -24 -60 -86 -27 -126 7 -8 35 -24 62 -37 62 -27 77
-44 73 -81 -5 -43 -47 -59 -106 -40 -25 9 -50 13 -54 11 -17 -11 -7 -26 27
-40 91 -38 175 1 175 80 0 50 -20 73 -92 104 -53 23 -74 52 -59 81 14 26 56
34 98 20 29 -9 37 -9 44 2 19 31 -91 51 -141 26z"/>
<path d="M3380 2020 c0 -163 1 -170 20 -170 18 0 20 7 20 65 l0 65 33 0 c30 0
37 -6 75 -65 29 -45 47 -65 62 -65 11 0 20 2 20 5 0 2 -18 32 -40 67 -39 62
-39 63 -20 83 34 36 43 78 26 119 -19 45 -63 66 -141 66 l-55 0 0 -170z m143
113 c8 -10 16 -25 17 -33 8 -55 -16 -80 -76 -80 l-44 0 0 65 0 65 43 0 c29 0
49 -6 60 -17z"/>
<path d="M30 2140 c0 -11 7 -20 15 -20 13 0 15 -22 15 -135 0 -128 1 -135 20
-135 19 0 20 7 20 155 l0 155 -35 0 c-28 0 -35 -4 -35 -20z"/>
<path d="M238 2145 c-40 -23 -58 -65 -58 -138 0 -78 26 -124 83 -146 102 -38
182 53 162 185 -10 67 -48 106 -111 110 -32 3 -58 -1 -76 -11z m121 -47 c41
-44 39 -141 -4 -184 -45 -45 -115 -23 -131 41 -10 42 1 123 21 145 25 28 88
27 114 -2z"/>
<path d="M545 2151 c-80 -33 -97 -186 -29 -260 29 -32 38 -36 83 -36 41 0 55
5 81 30 71 68 60 219 -20 260 -31 16 -83 19 -115 6z m114 -57 c27 -35 35 -82
22 -132 -26 -96 -135 -97 -161 -1 -13 48 -5 101 22 134 28 36 89 35 117 -1z"/>
<path d="M4167 2134 c-14 -15 -6 -34 14 -34 14 0 19 5 17 17 -3 18 -20 27 -31
17z"/>
<path d="M2390 2089 c0 -32 -4 -42 -20 -46 -11 -3 -20 -12 -20 -19 0 -8 9 -14
20 -14 18 0 20 -7 20 -80 0 -64 3 -80 15 -80 12 0 15 16 15 80 l0 80 30 0 c39
0 41 27 3 32 -25 3 -28 7 -31 46 -2 28 -8 42 -18 42 -10 0 -14 -12 -14 -41z"/>
<path d="M1530 1905 c0 -138 1 -145 20 -145 18 0 20 7 20 61 l0 60 22 -15 c34
-24 82 -20 117 10 26 22 31 33 31 71 0 81 -73 126 -140 88 -32 -18 -40 -18
-40 0 0 8 -7 15 -15 15 -13 0 -15 -23 -15 -145z m151 97 c47 -39 17 -122 -44
-122 -43 0 -67 25 -67 71 0 62 62 90 111 51z"/>
<path d="M1810 1905 c0 -138 1 -145 20 -145 18 0 20 7 20 61 l0 60 22 -15 c50
-35 129 -9 148 49 31 93 -54 165 -141 120 -26 -14 -30 -14 -35 0 -3 8 -12 15
-20 15 -11 0 -14 -28 -14 -145z m155 90 c30 -30 31 -54 4 -89 -41 -52 -119
-25 -119 41 0 67 68 96 115 48z"/>
<path d="M2569 2035 c-56 -30 -63 -125 -12 -165 48 -38 137 -19 161 35 43 94
-56 181 -149 130z m101 -35 c41 -41 12 -120 -45 -120 -14 0 -34 9 -45 20 -41
41 -12 120 45 120 14 0 34 -9 45 -20z"/>
<path d="M2861 2024 c-30 -25 -31 -25 -31 -5 0 12 -6 21 -15 21 -12 0 -15 -17
-15 -95 0 -74 3 -95 14 -95 10 0 15 18 18 60 5 63 26 100 60 100 11 0 18 7 18
20 0 27 -12 25 -49 -6z"/>
<path d="M3008 2034 c-85 -45 -51 -184 45 -184 46 0 67 9 67 27 0 10 -8 12
-34 8 -33 -7 -76 7 -76 24 0 5 34 21 75 36 l74 27 -14 29 c-26 50 -82 63 -137
33z m90 -26 c19 -19 15 -27 -25 -43 -85 -36 -106 -26 -62 29 22 28 66 35 87
14z"/>
<path d="M3724 2040 c-33 -13 -54 -50 -54 -96 0 -35 5 -47 31 -68 31 -27 89
-35 118 -17 24 15 2 29 -37 24 -29 -4 -41 0 -55 15 -18 20 -17 20 50 42 81 27
87 31 78 59 -12 40 -81 61 -131 41z m82 -34 c23 -18 16 -25 -44 -48 -59 -23
-62 -22 -62 2 0 48 65 76 106 46z"/>
<path d="M4299 2021 c-23 -24 -29 -38 -29 -74 0 -38 5 -49 31 -71 31 -27 89
-35 118 -17 24 15 2 29 -37 24 -29 -4 -41 0 -55 15 -18 20 -17 20 50 42 37 12
72 26 76 30 15 14 -3 50 -33 65 -46 24 -88 19 -121 -14z m107 -15 c23 -18 16
-25 -44 -48 -59 -23 -62 -22 -62 2 0 48 65 76 106 46z"/>
<path d="M4857 2032 c-18 -20 -22 -49 -9 -68 4 -7 24 -19 45 -27 62 -26 42
-78 -21 -55 -32 11 -50 -1 -27 -19 47 -34 125 -4 125 48 0 26 -6 33 -45 50
-30 13 -45 26 -45 38 0 24 26 34 50 21 25 -13 30 -13 30 4 0 30 -78 36 -103 8z"/>
<path d="M860 2010 c0 -28 -3 -30 -36 -30 -28 0 -35 -3 -32 -17 2 -12 14 -19
36 -21 28 -3 32 -7 32 -33 0 -19 5 -29 15 -29 10 0 15 10 15 29 0 26 4 30 32
33 22 2 34 9 36 21 3 14 -4 17 -32 17 -33 0 -36 2 -36 30 0 20 -5 30 -15 30
-10 0 -15 -10 -15 -30z"/>
<path d="M3918 2008 c11 -18 34 -61 52 -96 l33 -63 49 92 c26 50 48 93 48 95
0 2 -9 4 -20 4 -19 0 -26 -11 -62 -100 -10 -24 -11 -23 -41 38 -25 50 -36 62
-55 62 l-24 0 20 -32z"/>
<path d="M4160 1945 c0 -88 1 -95 20 -95 19 0 20 7 20 95 0 88 -1 95 -20 95
-19 0 -20 -7 -20 -95z"/>
<path d="M4543 1945 c23 -52 44 -91 47 -87 4 4 15 27 25 52 10 25 22 49 27 54
4 5 21 -19 37 -55 28 -61 29 -63 39 -39 5 14 24 57 41 94 17 38 31 70 31 72 0
2 -8 4 -18 4 -13 0 -23 -15 -36 -50 -10 -28 -22 -53 -27 -56 -5 -3 -21 20 -34
50 -14 31 -31 56 -39 56 -9 0 -12 -7 -9 -19 2 -10 -4 -36 -15 -57 l-20 -39
-27 58 c-18 39 -32 57 -45 57 -16 0 -13 -12 23 -95z"/>
</g>
</svg>
